# xmcd
#
# Track frame offsets:
#	180
#	22810
#	44246
#	60807
#	85133
#	108155
#	126695
#	145524
#	163503
#	184201
#	202158
#	219826
#	237235
#	250900
#	272469
#	289128
#
# Disc length: 4154 seconds
#
# Revision: 1
# Processed by: cddbd v1.5.2PL0 Copyright (c) Steve Scherf et al.
# Submitted via: audiograbber 1.83.01
#
DISCID=e3103810
DTITLE=George Banton (The Best Of Vol.1) - The Best Of Vol.1
DYEAR=1900
DGENRE=Caribean Ballads
TTITLE0=Send Me Someone To Love
TTITLE1=Faithful And True
TTITLE2=Be For Real
TTITLE3=Everlasting Love
TTITLE4=Tonight Is The Night/You Can Lean On Me ( ft Liberty Sylver)
TTITLE5=How Could I Let You Get Away
TTITLE6=Whenever I Think Of You
TTITLE7=How Can I Change My Mind
TTITLE8=It May Never Be The Same
TTITLE9=Lady Soul
TTITLE10=Hold On To What You Got
TTITLE11=Don't Let Your Love Fade Away
TTITLE12=Up Tight Woman
TTITLE13=Hold On To My Lover
TTITLE14=I'm Crazy About You Baby
TTITLE15=If You Don't Love Me Leave Me Alone
EXTD=Love Light Music Canada
EXTT0=
EXTT1=
EXTT2=
EXTT3=
EXTT4=
EXTT5=
EXTT6=
EXTT7=
EXTT8=
EXTT9=
EXTT10=
EXTT11=
EXTT12=
EXTT13=
EXTT14=
EXTT15=
PLAYORDER=
